<mxfile host="app.diagrams.net" modified="2021-04-14T13:31:39.826Z" agent="5.0 (X11; Linux x86_64) AppleWebKit/537.36 (KHTML, like Gecko) Chrome/87.0.4280.66 Safari/537.36" etag="rfWtwJNPaXi8V0Yw2YTi" version="14.6.0" type="github">
  <diagram id="7f-QAq3y_9wr80ahw9gj" name="Page-1">
    <mxGraphModel dx="1422" dy="740" grid="1" gridSize="10" guides="1" tooltips="1" connect="1" arrows="1" fold="1" page="1" pageScale="1" pageWidth="827" pageHeight="1169" math="0" shadow="0">
      <root>
        <mxCell id="0" />
        <mxCell id="1" parent="0" />
        <mxCell id="I7bxBoZIQO31dTdAYh0L-5" style="edgeStyle=orthogonalEdgeStyle;rounded=0;orthogonalLoop=1;jettySize=auto;html=1;" parent="1" source="I7bxBoZIQO31dTdAYh0L-3" edge="1">
          <mxGeometry relative="1" as="geometry">
            <mxPoint x="527" y="269" as="targetPoint" />
          </mxGeometry>
        </mxCell>
        <mxCell id="I7bxBoZIQO31dTdAYh0L-6" style="edgeStyle=orthogonalEdgeStyle;rounded=0;orthogonalLoop=1;jettySize=auto;html=1;" parent="1" source="I7bxBoZIQO31dTdAYh0L-3" edge="1">
          <mxGeometry relative="1" as="geometry">
            <mxPoint x="387" y="169" as="targetPoint" />
          </mxGeometry>
        </mxCell>
        <mxCell id="I7bxBoZIQO31dTdAYh0L-7" style="edgeStyle=orthogonalEdgeStyle;rounded=0;orthogonalLoop=1;jettySize=auto;html=1;" parent="1" source="I7bxBoZIQO31dTdAYh0L-3" edge="1">
          <mxGeometry relative="1" as="geometry">
            <mxPoint x="387" y="369" as="targetPoint" />
          </mxGeometry>
        </mxCell>
        <mxCell id="I7bxBoZIQO31dTdAYh0L-8" style="edgeStyle=orthogonalEdgeStyle;rounded=0;orthogonalLoop=1;jettySize=auto;html=1;" parent="1" source="I7bxBoZIQO31dTdAYh0L-3" edge="1">
          <mxGeometry relative="1" as="geometry">
            <mxPoint x="247" y="269" as="targetPoint" />
          </mxGeometry>
        </mxCell>
        <mxCell id="I7bxBoZIQO31dTdAYh0L-3" value="" style="rhombus;whiteSpace=wrap;html=1;strokeWidth=2;fillWeight=-1;hachureGap=8;fillStyle=cross-hatch;fillColor=#006600;sketch=1;" parent="1" vertex="1">
          <mxGeometry x="327" y="239" width="120" height="60" as="geometry" />
        </mxCell>
        <mxCell id="I7bxBoZIQO31dTdAYh0L-14" style="edgeStyle=orthogonalEdgeStyle;rounded=0;orthogonalLoop=1;jettySize=auto;html=1;" parent="1" source="I7bxBoZIQO31dTdAYh0L-9" edge="1">
          <mxGeometry relative="1" as="geometry">
            <mxPoint x="517" y="119" as="targetPoint" />
          </mxGeometry>
        </mxCell>
        <mxCell id="I7bxBoZIQO31dTdAYh0L-9" value="" style="shape=cylinder3;whiteSpace=wrap;html=1;boundedLbl=1;backgroundOutline=1;size=15;" parent="1" vertex="1">
          <mxGeometry x="357" y="79" width="60" height="80" as="geometry" />
        </mxCell>
        <mxCell id="I7bxBoZIQO31dTdAYh0L-23" style="edgeStyle=orthogonalEdgeStyle;rounded=0;orthogonalLoop=1;jettySize=auto;html=1;" parent="1" source="I7bxBoZIQO31dTdAYh0L-10" edge="1">
          <mxGeometry relative="1" as="geometry">
            <mxPoint x="117" y="269" as="targetPoint" />
          </mxGeometry>
        </mxCell>
        <mxCell id="I7bxBoZIQO31dTdAYh0L-24" style="edgeStyle=orthogonalEdgeStyle;rounded=0;orthogonalLoop=1;jettySize=auto;html=1;" parent="1" source="I7bxBoZIQO31dTdAYh0L-10" edge="1">
          <mxGeometry relative="1" as="geometry">
            <mxPoint x="207" y="389" as="targetPoint" />
          </mxGeometry>
        </mxCell>
        <mxCell id="I7bxBoZIQO31dTdAYh0L-26" style="edgeStyle=orthogonalEdgeStyle;rounded=0;orthogonalLoop=1;jettySize=auto;html=1;" parent="1" source="I7bxBoZIQO31dTdAYh0L-10" edge="1">
          <mxGeometry relative="1" as="geometry">
            <mxPoint x="207" y="159" as="targetPoint" />
          </mxGeometry>
        </mxCell>
        <mxCell id="I7bxBoZIQO31dTdAYh0L-10" value="" style="shape=cylinder3;whiteSpace=wrap;html=1;boundedLbl=1;backgroundOutline=1;size=15;" parent="1" vertex="1">
          <mxGeometry x="177" y="229" width="60" height="80" as="geometry" />
        </mxCell>
        <mxCell id="I7bxBoZIQO31dTdAYh0L-17" style="edgeStyle=orthogonalEdgeStyle;rounded=0;orthogonalLoop=1;jettySize=auto;html=1;" parent="1" source="I7bxBoZIQO31dTdAYh0L-11" edge="1">
          <mxGeometry relative="1" as="geometry">
            <mxPoint x="687" y="189" as="targetPoint" />
          </mxGeometry>
        </mxCell>
        <mxCell id="I7bxBoZIQO31dTdAYh0L-11" value="" style="shape=cylinder3;whiteSpace=wrap;html=1;boundedLbl=1;backgroundOutline=1;size=15;" parent="1" vertex="1">
          <mxGeometry x="537" y="229" width="60" height="80" as="geometry" />
        </mxCell>
        <mxCell id="I7bxBoZIQO31dTdAYh0L-19" style="edgeStyle=orthogonalEdgeStyle;rounded=0;orthogonalLoop=1;jettySize=auto;html=1;" parent="1" source="I7bxBoZIQO31dTdAYh0L-12" edge="1">
          <mxGeometry relative="1" as="geometry">
            <mxPoint x="527" y="419" as="targetPoint" />
          </mxGeometry>
        </mxCell>
        <mxCell id="I7bxBoZIQO31dTdAYh0L-12" value="" style="shape=cylinder3;whiteSpace=wrap;html=1;boundedLbl=1;backgroundOutline=1;size=15;" parent="1" vertex="1">
          <mxGeometry x="357" y="379" width="60" height="80" as="geometry" />
        </mxCell>
        <mxCell id="I7bxBoZIQO31dTdAYh0L-13" value="" style="triangle;whiteSpace=wrap;html=1;" parent="1" vertex="1">
          <mxGeometry x="517" y="79" width="60" height="80" as="geometry" />
        </mxCell>
        <mxCell id="I7bxBoZIQO31dTdAYh0L-15" value="Actor" style="shape=umlActor;verticalLabelPosition=bottom;verticalAlign=top;html=1;outlineConnect=0;" parent="1" vertex="1">
          <mxGeometry x="667" y="89" width="30" height="60" as="geometry" />
        </mxCell>
        <mxCell id="I7bxBoZIQO31dTdAYh0L-28" style="edgeStyle=orthogonalEdgeStyle;rounded=0;orthogonalLoop=1;jettySize=auto;html=1;" parent="1" source="I7bxBoZIQO31dTdAYh0L-20" edge="1">
          <mxGeometry relative="1" as="geometry">
            <mxPoint x="667" y="419" as="targetPoint" />
          </mxGeometry>
        </mxCell>
        <mxCell id="I7bxBoZIQO31dTdAYh0L-20" value="" style="shape=xor;whiteSpace=wrap;html=1;" parent="1" vertex="1">
          <mxGeometry x="537" y="379" width="60" height="80" as="geometry" />
        </mxCell>
        <mxCell id="I7bxBoZIQO31dTdAYh0L-21" value="" style="shape=process;whiteSpace=wrap;html=1;backgroundOutline=1;" parent="1" vertex="1">
          <mxGeometry x="147" y="389" width="120" height="60" as="geometry" />
        </mxCell>
        <mxCell id="I7bxBoZIQO31dTdAYh0L-22" value="" style="rhombus;whiteSpace=wrap;html=1;" parent="1" vertex="1">
          <mxGeometry x="27" y="229" width="80" height="80" as="geometry" />
        </mxCell>
        <mxCell id="I7bxBoZIQO31dTdAYh0L-25" value="" style="rounded=1;whiteSpace=wrap;html=1;strokeWidth=2;fillWeight=4;hachureGap=8;hachureAngle=45;fillColor=#1ba1e2;sketch=1;" parent="1" vertex="1">
          <mxGeometry x="147" y="89" width="120" height="60" as="geometry" />
        </mxCell>
        <mxCell id="I7bxBoZIQO31dTdAYh0L-27" value="" style="ellipse;whiteSpace=wrap;html=1;strokeWidth=2;fillWeight=2;hachureGap=8;fillColor=#990000;fillStyle=dots;sketch=1;" parent="1" vertex="1">
          <mxGeometry x="677" y="389" width="120" height="60" as="geometry" />
        </mxCell>
      </root>
    </mxGraphModel>
  </diagram>
</mxfile>
